<svg width="32" height="32" viewBox="0 0 32 32" fill="none" xmlns="http://www.w3.org/2000/svg">
<path d="M16.0013 29.3337C8.6373 29.3337 2.66797 23.3643 2.66797 16.0003C2.66797 8.63633 8.6373 2.66699 16.0013 2.66699C23.3653 2.66699 29.3346 8.63633 29.3346 16.0003C29.3346 23.3643 23.3653 29.3337 16.0013 29.3337ZM11.8546 17.5603L11.872 17.551L13.032 21.3777C13.1813 21.7923 13.3866 21.867 13.636 21.8323C13.8866 21.799 14.0186 21.6643 14.1826 21.507L15.7666 19.9763L19.1666 22.4937C19.788 22.8363 20.2346 22.659 20.3893 21.9177L22.5986 11.4883C22.8426 10.5177 22.416 10.1283 21.6626 10.4377L8.6853 15.451C7.79997 15.8057 7.8053 16.3017 8.5253 16.5217L11.8546 17.5617V17.5603Z" fill="$color-black"/>
</svg>
