<svg width="28" height="20" viewBox="0 0 28 20" fill="none" xmlns="http://www.w3.org/2000/svg">
<g clip-path="url(#clip0_1113_3176)">
<path d="M0.666992 0H27.3337V20H0.666992V0Z" fill="#012169"/>
<path d="M3.79199 0L13.9587 7.54167L24.0837 0H27.3337V2.58333L17.3337 10.0417L27.3337 17.4583V20H24.0003L14.0003 12.5417L4.04199 20H0.666992V17.5L10.6253 10.0833L0.666992 2.66667V0H3.79199Z" fill="white"/>
<path d="M18.3337 11.7083L27.3337 18.3333V20L16.042 11.7083H18.3337ZM10.667 12.5417L10.917 14L2.91699 20H0.666992L10.667 12.5417ZM27.3337 0V0.125L16.9587 7.95833L17.042 6.125L25.2503 0H27.3337ZM0.666992 0L10.6253 7.33333H8.12533L0.666992 1.75V0Z" fill="#C8102E"/>
<path d="M10.7087 0V20H17.3753V0H10.7087ZM0.666992 6.66667V13.3333H27.3337V6.66667H0.666992Z" fill="white"/>
<path d="M0.666992 8.04167V12.0417H27.3337V8.04167H0.666992ZM12.042 0V20H16.042V0H12.042Z" fill="#C8102E"/>
</g>
<defs>
<clipPath id="clip0_1113_3176">
<rect width="26.6667" height="20" fill="white" transform="translate(0.666992)"/>
</clipPath>
</defs>
</svg>
