<svg width="64" height="64" viewBox="0 0 64 64" fill="none" xmlns="http://www.w3.org/2000/svg">
<path opacity="0.8" d="M60.1095 17.1203C59.7927 15.8548 59.1476 14.6952 58.2392 13.7587C57.3309 12.8223 56.1915 12.1422 54.9362 11.787C50.3495 10.667 32.0028 10.667 32.0028 10.667C32.0028 10.667 13.6562 10.667 9.06949 11.8937C7.81415 12.2488 6.67477 12.929 5.76642 13.8654C4.85807 14.8019 4.21293 15.9614 3.89616 17.227C3.05673 21.8818 2.64612 26.6038 2.66949 31.3337C2.63957 36.0991 3.05021 40.8571 3.89616 45.547C4.24538 46.7733 4.90498 47.8887 5.81121 48.7856C6.71744 49.6825 7.83968 50.3305 9.06949 50.667C13.6562 51.8937 32.0028 51.8937 32.0028 51.8937C32.0028 51.8937 50.3495 51.8937 54.9362 50.667C56.1915 50.3118 57.3309 49.6317 58.2392 48.6952C59.1476 47.7588 59.7927 46.5992 60.1095 45.3337C60.9424 40.7139 61.353 36.0279 61.3362 31.3337C61.3661 26.5682 60.9554 21.8102 60.1095 17.1203Z" fill="black"/>
<path d="M26 40.0533L41.3333 31.3333L26 22.6133V40.0533Z" fill="white"/>
</svg>
