<svg width="20" height="20" viewBox="0 0 20 20" fill="none" xmlns="http://www.w3.org/2000/svg">
<path d="M15.7143 0H4.28571C1.92286 0 0 1.92238 0 4.28571V15.7143C0 18.0776 1.92286 20 4.28571 20H15.7143C18.0771 20 20 18.0776 20 15.7143V4.28571C20 1.92238 18.0771 0 15.7143 0ZM14.7619 10.9524V12.8571V12.8671H14.761C14.7552 14.1752 13.69 15.2381 12.381 15.2381H12.1429C11.6729 15.2381 11.2224 15.0381 10.9067 14.6895C10.5914 14.3414 10.4376 13.8714 10.4843 13.4014C10.569 12.5619 11.3271 11.9048 12.211 11.9048H12.8571C13.3824 11.9048 13.8095 11.4776 13.8095 10.9524V6.28809L8.09524 7.35952V12.381V14.2857C8.09524 15.5986 7.02714 16.6667 5.71429 16.6667H5.47619C5.00619 16.6667 4.55571 16.4667 4.24 16.1181C3.92476 15.77 3.77095 15.3 3.81762 14.83C3.90238 13.9905 4.66048 13.3333 5.54429 13.3333H6.19048C6.71571 13.3333 7.14286 12.9062 7.14286 12.381V5.40619C7.14286 4.94762 7.47 4.55381 7.92048 4.47L13.9162 3.34619C14.1252 3.30667 14.3405 3.3619 14.5038 3.4981C14.6681 3.63429 14.7619 3.83476 14.7619 4.04762V10.9524Z" fill="white"/>
</svg>
