<?xml version="1.0" encoding="utf-8"?><svg viewBox="0 0 24 24" xmlns="http://www.w3.org/2000/svg" xmlns:xlink="http://www.w3.org/1999/xlink"><style>:root>svg{display:none}:root>svg:target{display:block}</style><svg viewBox="0 0 24 24" id="apple" xmlns="http://www.w3.org/2000/svg"><path d="M17.714 2H6.286A4.29 4.29 0 002 6.286v11.428A4.29 4.29 0 006.286 22h11.428A4.29 4.29 0 0022 17.714V6.286A4.29 4.29 0 0017.714 2zm-.952 10.952v1.915h-.001a2.384 2.384 0 01-2.38 2.371h-.238a1.67 1.67 0 01-1.659-1.837c.085-.84.843-1.496 1.727-1.496h.646a.953.953 0 00.953-.953V8.288L10.095 9.36v6.926a2.384 2.384 0 01-2.38 2.38h-.239a1.67 1.67 0 01-1.658-1.836c.084-.84.842-1.497 1.726-1.497h.646a.953.953 0 00.953-.952V7.406c0-.458.327-.852.777-.936l5.996-1.124a.71.71 0 01.846.702v6.904z"/></svg><svg viewBox="0 0 24 24" id="fb" xmlns="http://www.w3.org/2000/svg"><path d="M2 11.999a10.005 10.005 0 008.437 9.879v-6.99H7.9v-2.89h2.54v-2.2a3.528 3.528 0 013.773-3.9c.75.013 1.5.08 2.24.2v2.46h-1.264a1.446 1.446 0 00-1.628 1.563v1.878h2.771l-.443 2.89h-2.328v6.989A10 10 0 102 11.998z"/></svg><svg viewBox="0 0 24 24" id="inst" xmlns="http://www.w3.org/2000/svg"><path d="M7.832 2A5.84 5.84 0 002 7.835v8.333A5.84 5.84 0 007.835 22h8.333A5.84 5.84 0 0022 16.165V7.832A5.84 5.84 0 0016.165 2H7.832zm10.001 3.333a.834.834 0 110 1.668.834.834 0 010-1.668zM12 7c2.758 0 5 2.242 5 5s-2.242 5-5 5-5-2.242-5-5 2.242-5 5-5zm0 1.667a3.333 3.333 0 100 6.666 3.333 3.333 0 000-6.666z"/></svg><svg viewBox="0 0 24 24" id="mail" xmlns="http://www.w3.org/2000/svg"><path d="M20 4H4c-1.1 0-2 .9-2 2v12c0 1.1.9 2 2 2h16c1.1 0 2-.9 2-2V6c0-1.1-.9-2-2-2zm-.4 4.25l-6.54 4.09c-.65.41-1.47.41-2.12 0L4.4 8.25a.85.85 0 11.9-1.44L12 11l6.7-4.19a.85.85 0 11.9 1.44z"/></svg><svg viewBox="0 0 24 24" id="phone" xmlns="http://www.w3.org/2000/svg"><path d="M19.23 15.26l-2.54-.29a1.99 1.99 0 00-1.64.57l-1.84 1.84a15.045 15.045 0 01-6.59-6.59l1.85-1.85c.43-.43.64-1.03.57-1.64l-.29-2.52a2.001 2.001 0 00-1.99-1.77H5.03c-1.13 0-2.07.94-2 2.07.53 8.54 7.36 15.36 15.89 15.89 1.13.07 2.07-.87 2.07-2v-1.73c.01-1.01-.75-1.86-1.76-1.98z"/></svg><svg viewBox="0 0 24 24" id="spoty" xmlns="http://www.w3.org/2000/svg"><path d="M11.991 21.982A9.978 9.978 0 014.935 4.934a9.978 9.978 0 1114.111 14.111 9.919 9.919 0 01-7.055 2.936zm-1.482-6.729a9.794 9.794 0 015.227 1.384.59.59 0 00.33.1.632.632 0 00.521-.3.7.7 0 00.042-.545.52.52 0 00-.293-.3 11.04 11.04 0 00-5.88-1.549c-1.283.01-2.56.16-3.81.45a.628.628 0 00-.45.748.656.656 0 00.591.472.557.557 0 00.157-.023 16.126 16.126 0 013.565-.437zm-.19-2.976a12.649 12.649 0 016.416 1.661c.112.081.246.125.383.124.27-.01.518-.149.668-.373a.71.71 0 00.1-.586.622.622 0 00-.3-.412 14.264 14.264 0 00-7.268-1.91 13.772 13.772 0 00-3.972.56.773.773 0 00-.5.951.738.738 0 00.741.523.84.84 0 00.213-.025c1.14-.35 2.327-.523 3.52-.513zm.19-3.088a14.987 14.987 0 017.376 1.7c.153.084.326.127.5.125a1 1 0 00.8-.373.985.985 0 00.088-.724.91.91 0 00-.436-.574A16.838 16.838 0 0010.5 7.38a17.359 17.359 0 00-4.758.614.915.915 0 00.287 1.79.917.917 0 00.262-.039 14.7 14.7 0 014.217-.556v.001z"/></svg><svg viewBox="0 0 24 24" id="youtube" xmlns="http://www.w3.org/2000/svg"><path d="M12.02 19.012H12c-.061 0-6.264-.012-7.83-.437a2.5 2.5 0 01-1.763-1.765A26.493 26.493 0 012 12a26.646 26.646 0 01.417-4.817A2.564 2.564 0 014.184 5.4c1.522-.4 7.554-.4 7.81-.4h.02c.064 0 6.283.012 7.832.437.858.233 1.53.904 1.762 1.763a25.25 25.25 0 01.407 4.831 26.568 26.568 0 01-.418 4.811 2.51 2.51 0 01-1.767 1.763c-1.52.403-7.553.407-7.81.407zm-2-10.007l-.004 6 5.212-3-5.207-3z"/></svg></svg>