<svg width="20" height="20" viewBox="0 0 20 20" fill="none" xmlns="http://www.w3.org/2000/svg">
<path d="M9.9913 19.9815C5.95 19.9867 2.3046 17.5538 0.75893 13.8197C-0.786737 10.0857 0.0726027 5.78802 2.9353 2.93545C5.45447 0.407182 9.13221 -0.583003 12.5802 0.338672C16.0282 1.26035 18.7214 3.9535 19.6431 7.40153C20.5648 10.8495 19.5746 14.5273 17.0463 17.0464C15.181 18.9277 12.6406 19.9845 9.9913 19.9815ZM8.5093 13.2534C10.347 13.2151 12.1584 13.6947 13.7363 14.6374C13.8336 14.7027 13.9481 14.7375 14.0653 14.7374C14.2788 14.7321 14.4752 14.6192 14.5873 14.4374C14.6746 14.269 14.6897 14.0723 14.6293 13.8924C14.5782 13.7557 14.4718 13.6468 14.3363 13.5924C12.5597 12.5357 10.522 11.999 8.4553 12.0434C7.17303 12.0533 5.89571 12.2038 4.6463 12.4924C4.31873 12.5797 4.11956 12.9112 4.1963 13.2414C4.27365 13.5079 4.5103 13.6969 4.7873 13.7134C4.84046 13.7133 4.89332 13.7055 4.9443 13.6904C6.11265 13.4124 7.3084 13.2659 8.5093 13.2534ZM8.3193 10.2774C10.5676 10.251 12.7823 10.8243 14.7353 11.9384C14.8466 12.0193 14.9807 12.0628 15.1183 12.0625C15.3878 12.052 15.636 11.9134 15.7863 11.6894C15.9037 11.5181 15.9403 11.304 15.8863 11.1034C15.8497 10.9296 15.7406 10.7796 15.5863 10.6914C13.378 9.41619 10.8682 8.75628 8.3183 8.78045C6.97407 8.77222 5.63587 8.96089 4.3463 9.34045C3.95006 9.47088 3.72879 9.89219 3.8463 10.2924C3.9444 10.6159 4.24968 10.8314 4.5873 10.8154C4.65907 10.8162 4.73065 10.8078 4.8003 10.7904C5.94009 10.4401 7.12695 10.2671 8.3193 10.2774ZM8.5083 7.18945C11.0723 7.11549 13.6123 7.70083 15.8853 8.88945C16.0385 8.97319 16.2107 9.01622 16.3853 9.01445C16.6954 9.0209 16.9909 8.88311 17.1853 8.64145C17.3062 8.42026 17.3377 8.16115 17.2733 7.91745C17.2131 7.67431 17.0554 7.4667 16.8373 7.34345C14.2741 5.98109 11.4021 5.30454 8.5003 5.37945C6.89353 5.36291 5.29224 5.56955 3.7423 5.99345C3.30694 6.12809 3.03701 6.56258 3.1092 7.01254C3.18138 7.46249 3.57367 7.79075 4.0293 7.78245C4.11801 7.78252 4.20627 7.76972 4.2913 7.74445C5.66258 7.35565 7.08312 7.16836 8.5083 7.18845V7.18945Z" fill="white"/>
</svg>
